<svg width="157" height="71" viewBox="0 0 157 71" fill="none" xmlns="http://www.w3.org/2000/svg">
<path d="M75.7639 59.1669H74.9971V53.9839H75.7639V59.1669Z" fill="#1267B0"/>
<path d="M80.0835 57.7185H77.2577C77.3145 57.9836 77.4423 58.1895 77.6411 58.3362C77.8446 58.4829 78.0955 58.5563 78.3937 58.5563C78.796 58.5563 79.1013 58.4096 79.3096 58.1161L79.9415 58.4853C79.596 59.0012 79.0777 59.2592 78.3866 59.2592C77.8139 59.2592 77.3476 59.0841 76.9879 58.7338C76.6329 58.3788 76.4554 57.9315 76.4554 57.3919C76.4554 56.8665 76.6305 56.4239 76.9808 56.0642C77.3263 55.7045 77.776 55.5246 78.3298 55.5246C78.8457 55.5246 79.2717 55.7068 79.6078 56.0713C79.9439 56.4358 80.1119 56.8783 80.1119 57.399C80.1119 57.4937 80.1024 57.6002 80.0835 57.7185ZM77.2506 57.0937H79.338C79.2859 56.8144 79.1676 56.5991 78.983 56.4476C78.8031 56.2961 78.583 56.2204 78.3227 56.2204C78.0387 56.2204 77.802 56.2985 77.6127 56.4547C77.4234 56.6109 77.3027 56.8239 77.2506 57.0937Z" fill="#1267B0"/>
<path d="M83.5774 56.121V55.6169H84.3442V59.1669H83.5774V58.6557C83.2887 59.058 82.8745 59.2592 82.3349 59.2592C81.8474 59.2592 81.4309 59.0793 81.0853 58.7196C80.7398 58.3599 80.567 57.9173 80.567 57.3919C80.567 56.8665 80.7398 56.4239 81.0853 56.0642C81.4309 55.7045 81.8474 55.5246 82.3349 55.5246C82.8745 55.5246 83.2887 55.7234 83.5774 56.121ZM81.6533 58.2084C81.8663 58.4214 82.1338 58.5279 82.4556 58.5279C82.7775 58.5279 83.0449 58.4214 83.2579 58.2084C83.4709 57.9907 83.5774 57.7185 83.5774 57.3919C83.5774 57.0653 83.4709 56.7955 83.2579 56.5825C83.0449 56.3648 82.7775 56.2559 82.4556 56.2559C82.1338 56.2559 81.8663 56.3648 81.6533 56.5825C81.4403 56.7955 81.3338 57.0653 81.3338 57.3919C81.3338 57.7138 81.4403 57.9859 81.6533 58.2084Z" fill="#1267B0"/>
<path d="M86.0048 55.6169V56.2133C86.1989 55.7731 86.5633 55.553 87.0982 55.553V56.3837C86.8095 56.3648 86.5539 56.4358 86.3314 56.5967C86.1137 56.7529 86.0048 57.0132 86.0048 57.3777V59.1669H85.238V55.6169H86.0048Z" fill="#1267B0"/>
<path d="M89.532 55.5246C89.9438 55.5246 90.2728 55.6571 90.5189 55.9222C90.7698 56.1825 90.8952 56.5375 90.8952 56.9872V59.1669H90.1284V57.0653C90.1284 56.8002 90.0574 56.5967 89.9154 56.4547C89.7734 56.3127 89.5794 56.2417 89.3332 56.2417C89.054 56.2417 88.8339 56.3293 88.6729 56.5044C88.512 56.6748 88.4315 56.928 88.4315 57.2641V59.1669H87.6647V55.6169H88.4315V56.0713C88.6682 55.7068 89.035 55.5246 89.532 55.5246Z" fill="#1267B0"/>
<path d="M91.9339 58.3149H92.7859L92.2889 60.1609H91.6499L91.9339 58.3149Z" fill="#1267B0"/>
<path d="M96.0636 56.5967C96.0636 56.7056 96.1204 56.7955 96.234 56.8665C96.3476 56.9328 96.5133 56.9967 96.731 57.0582C96.8967 57.0961 97.041 57.1363 97.1641 57.1789C97.2872 57.2215 97.4173 57.2854 97.5546 57.3706C97.6919 57.4511 97.796 57.5599 97.867 57.6972C97.9427 57.8297 97.9782 57.9859 97.9735 58.1658C97.9735 58.5066 97.841 58.774 97.5759 58.9681C97.3108 59.1622 96.9819 59.2592 96.589 59.2592C96.2387 59.2592 95.9382 59.1858 95.6873 59.0391C95.4364 58.8924 95.2542 58.6888 95.1406 58.4285L95.8009 58.0451C95.9192 58.3859 96.1819 58.5563 96.589 58.5563C96.9913 58.5563 97.1925 58.4238 97.1925 58.1587C97.1925 57.9646 96.9677 57.8132 96.518 57.7043C96.3476 57.6617 96.2032 57.6191 96.0849 57.5765C95.9713 57.5339 95.8435 57.4724 95.7015 57.3919C95.5642 57.3114 95.4577 57.2049 95.382 57.0724C95.311 56.9399 95.2779 56.786 95.2826 56.6109C95.2826 56.2843 95.4057 56.0216 95.6518 55.8228C95.9027 55.624 96.2127 55.5246 96.5819 55.5246C96.8754 55.5246 97.1357 55.5909 97.3629 55.7234C97.5948 55.8512 97.7723 56.0311 97.8954 56.263L97.2493 56.6251C97.131 56.3553 96.9085 56.2204 96.5819 56.2204C96.4304 56.2204 96.305 56.2535 96.2056 56.3198C96.1109 56.3861 96.0636 56.4784 96.0636 56.5967Z" fill="#1267B0"/>
<path d="M100.473 55.5246C100.885 55.5246 101.214 55.6571 101.46 55.9222C101.711 56.1825 101.836 56.5375 101.836 56.9872V59.1669H101.07V57.0653C101.07 56.8002 100.999 56.5967 100.857 56.4547C100.715 56.3127 100.521 56.2417 100.274 56.2417C99.9952 56.2417 99.7751 56.3293 99.6142 56.5044C99.4532 56.6748 99.3728 56.928 99.3728 57.2641V59.1669H98.606V54.1969H99.3728V56.0713C99.6094 55.7068 99.9763 55.5246 100.473 55.5246Z" fill="#1267B0"/>
<path d="M105.474 56.121V55.6169H106.241V59.1669H105.474V58.6557C105.185 59.058 104.771 59.2592 104.231 59.2592C103.744 59.2592 103.327 59.0793 102.982 58.7196C102.636 58.3599 102.463 57.9173 102.463 57.3919C102.463 56.8665 102.636 56.4239 102.982 56.0642C103.327 55.7045 103.744 55.5246 104.231 55.5246C104.771 55.5246 105.185 55.7234 105.474 56.121ZM103.55 58.2084C103.763 58.4214 104.03 58.5279 104.352 58.5279C104.674 58.5279 104.941 58.4214 105.154 58.2084C105.367 57.9907 105.474 57.7185 105.474 57.3919C105.474 57.0653 105.367 56.7955 105.154 56.5825C104.941 56.3648 104.674 56.2559 104.352 56.2559C104.03 56.2559 103.763 56.3648 103.55 56.5825C103.337 56.7955 103.23 57.0653 103.23 57.3919C103.23 57.7138 103.337 57.9859 103.55 58.2084Z" fill="#1267B0"/>
<path d="M107.901 55.6169V56.2133C108.095 55.7731 108.46 55.553 108.994 55.553V56.3837C108.706 56.3648 108.45 56.4358 108.228 56.5967C108.01 56.7529 107.901 57.0132 107.901 57.3777V59.1669H107.134V55.6169H107.901Z" fill="#1267B0"/>
<path d="M112.824 57.7185H109.998C110.055 57.9836 110.183 58.1895 110.382 58.3362C110.585 58.4829 110.836 58.5563 111.134 58.5563C111.536 58.5563 111.842 58.4096 112.05 58.1161L112.682 58.4853C112.336 59.0012 111.818 59.2592 111.127 59.2592C110.554 59.2592 110.088 59.0841 109.728 58.7338C109.373 58.3788 109.196 57.9315 109.196 57.3919C109.196 56.8665 109.371 56.4239 109.721 56.0642C110.067 55.7045 110.516 55.5246 111.07 55.5246C111.586 55.5246 112.012 55.7068 112.348 56.0713C112.684 56.4358 112.852 56.8783 112.852 57.399C112.852 57.4937 112.843 57.6002 112.824 57.7185ZM109.991 57.0937H112.078C112.026 56.8144 111.908 56.5991 111.723 56.4476C111.544 56.2961 111.323 56.2204 111.063 56.2204C110.779 56.2204 110.542 56.2985 110.353 56.4547C110.164 56.6109 110.043 56.8239 109.991 57.0937Z" fill="#1267B0"/>
<path d="M113.456 58.3149H114.308L113.811 60.1609H113.172L113.456 58.3149Z" fill="#1267B0"/>
<path d="M117.621 54.9424C117.526 55.0371 117.413 55.0844 117.28 55.0844C117.148 55.0844 117.032 55.0371 116.932 54.9424C116.838 54.843 116.79 54.727 116.79 54.5945C116.79 54.462 116.838 54.3484 116.932 54.2537C117.027 54.1543 117.143 54.1046 117.28 54.1046C117.417 54.1046 117.533 54.1543 117.628 54.2537C117.723 54.3484 117.77 54.462 117.77 54.5945C117.77 54.727 117.72 54.843 117.621 54.9424ZM117.664 59.1669H116.897V55.6169H117.664V59.1669Z" fill="#1267B0"/>
<path d="M120.421 55.5246C120.833 55.5246 121.162 55.6571 121.408 55.9222C121.659 56.1825 121.784 56.5375 121.784 56.9872V59.1669H121.018V57.0653C121.018 56.8002 120.947 56.5967 120.805 56.4547C120.663 56.3127 120.469 56.2417 120.222 56.2417C119.943 56.2417 119.723 56.3293 119.562 56.5044C119.401 56.6748 119.321 56.928 119.321 57.2641V59.1669H118.554V55.6169H119.321V56.0713C119.557 55.7068 119.924 55.5246 120.421 55.5246Z" fill="#1267B0"/>
<path d="M123.299 56.5967C123.299 56.7056 123.356 56.7955 123.469 56.8665C123.583 56.9328 123.748 56.9967 123.966 57.0582C124.132 57.0961 124.276 57.1363 124.399 57.1789C124.522 57.2215 124.652 57.2854 124.79 57.3706C124.927 57.4511 125.031 57.5599 125.102 57.6972C125.178 57.8297 125.213 57.9859 125.209 58.1658C125.209 58.5066 125.076 58.774 124.811 58.9681C124.546 59.1622 124.217 59.2592 123.824 59.2592C123.474 59.2592 123.173 59.1858 122.922 59.0391C122.672 58.8924 122.489 58.6888 122.376 58.4285L123.036 58.0451C123.154 58.3859 123.417 58.5563 123.824 58.5563C124.226 58.5563 124.428 58.4238 124.428 58.1587C124.428 57.9646 124.203 57.8132 123.753 57.7043C123.583 57.6617 123.438 57.6191 123.32 57.5765C123.206 57.5339 123.079 57.4724 122.937 57.3919C122.799 57.3114 122.693 57.2049 122.617 57.0724C122.546 56.9399 122.513 56.786 122.518 56.6109C122.518 56.2843 122.641 56.0216 122.887 55.8228C123.138 55.624 123.448 55.5246 123.817 55.5246C124.111 55.5246 124.371 55.5909 124.598 55.7234C124.83 55.8512 125.007 56.0311 125.131 56.263L124.484 56.6251C124.366 56.3553 124.144 56.2204 123.817 56.2204C123.666 56.2204 123.54 56.2535 123.441 56.3198C123.346 56.3861 123.299 56.4784 123.299 56.5967Z" fill="#1267B0"/>
<path d="M127.892 55.5246C128.375 55.5246 128.791 55.7068 129.142 56.0713C129.487 56.431 129.66 56.8712 129.66 57.3919C129.66 57.9173 129.487 58.3599 129.142 58.7196C128.796 59.0793 128.38 59.2592 127.892 59.2592C127.357 59.2592 126.943 59.0604 126.65 58.6628V60.5869H125.883V55.6169H126.65V56.1281C126.938 55.7258 127.352 55.5246 127.892 55.5246ZM126.969 58.2084C127.182 58.4214 127.449 58.5279 127.771 58.5279C128.093 58.5279 128.361 58.4214 128.574 58.2084C128.787 57.9907 128.893 57.7185 128.893 57.3919C128.893 57.0653 128.787 56.7955 128.574 56.5825C128.361 56.3648 128.093 56.2559 127.771 56.2559C127.449 56.2559 127.182 56.3648 126.969 56.5825C126.756 56.7955 126.65 57.0653 126.65 57.3919C126.65 57.7138 126.756 57.9859 126.969 58.2084Z" fill="#1267B0"/>
<path d="M131.079 54.9424C130.984 55.0371 130.871 55.0844 130.738 55.0844C130.606 55.0844 130.49 55.0371 130.39 54.9424C130.296 54.843 130.248 54.727 130.248 54.5945C130.248 54.462 130.296 54.3484 130.39 54.2537C130.485 54.1543 130.601 54.1046 130.738 54.1046C130.876 54.1046 130.992 54.1543 131.086 54.2537C131.181 54.3484 131.228 54.462 131.228 54.5945C131.228 54.727 131.178 54.843 131.079 54.9424ZM131.122 59.1669H130.355V55.6169H131.122V59.1669Z" fill="#1267B0"/>
<path d="M132.779 55.6169V56.2133C132.973 55.7731 133.337 55.553 133.872 55.553V56.3837C133.583 56.3648 133.328 56.4358 133.105 56.5967C132.888 56.7529 132.779 57.0132 132.779 57.3777V59.1669H132.012V55.6169H132.779Z" fill="#1267B0"/>
<path d="M137.702 57.7185H134.876C134.933 57.9836 135.06 58.1895 135.259 58.3362C135.463 58.4829 135.714 58.5563 136.012 58.5563C136.414 58.5563 136.719 58.4096 136.928 58.1161L137.56 58.4853C137.214 59.0012 136.696 59.2592 136.005 59.2592C135.432 59.2592 134.966 59.0841 134.606 58.7338C134.251 58.3788 134.074 57.9315 134.074 57.3919C134.074 56.8665 134.249 56.4239 134.599 56.0642C134.944 55.7045 135.394 55.5246 135.948 55.5246C136.464 55.5246 136.89 55.7068 137.226 56.0713C137.562 56.4358 137.73 56.8783 137.73 57.399C137.73 57.4937 137.721 57.6002 137.702 57.7185ZM134.869 57.0937H136.956C136.904 56.8144 136.786 56.5991 136.601 56.4476C136.421 56.2961 136.201 56.2204 135.941 56.2204C135.657 56.2204 135.42 56.2985 135.231 56.4547C135.042 56.6109 134.921 56.8239 134.869 57.0937Z" fill="#1267B0"/>
<path d="M74.2896 11.3599H78.2372C79.6004 11.3599 80.7364 11.838 81.6452 12.7941C82.5634 13.7408 83.0225 14.9194 83.0225 16.3299C83.0225 17.7405 82.5634 18.9191 81.6452 19.8657C80.7364 20.8219 79.6004 21.2999 78.2372 21.2999H74.2896V11.3599ZM76.2492 19.4255H78.2372C79.0986 19.4255 79.7992 19.1415 80.3388 18.5735C80.8784 17.9866 81.1482 17.2387 81.1482 16.3299C81.1482 15.4117 80.8784 14.6685 80.3388 14.1005C79.7992 13.5231 79.0986 13.2343 78.2372 13.2343H76.2492V19.4255Z" fill="#1267B0"/>
<path d="M84.4126 21.2999V11.3599H86.3722V21.2999H84.4126Z" fill="#1267B0"/>
<path d="M92.9834 15.9607H97.9676V16.7275C97.9676 18.1475 97.5132 19.2977 96.6044 20.1781C95.6956 21.0585 94.5217 21.4987 93.0828 21.4987C91.5492 21.4987 90.2759 21.0017 89.263 20.0077C88.2595 19.0043 87.7578 17.7831 87.7578 16.3441C87.7578 14.8957 88.2548 13.6698 89.2488 12.6663C90.2523 11.6629 91.4924 11.1611 92.9692 11.1611C93.8875 11.1611 94.73 11.3694 95.4968 11.7859C96.2636 12.2025 96.8647 12.7657 97.3002 13.4757L95.6246 14.4413C95.3879 14.0343 95.0282 13.7029 94.5454 13.4473C94.0626 13.1917 93.5325 13.0639 92.955 13.0639C91.9989 13.0639 91.2179 13.3763 90.612 14.0011C90.0061 14.607 89.7032 15.388 89.7032 16.3441C89.7032 17.2813 90.0109 18.0576 90.6262 18.6729C91.2415 19.2788 92.0651 19.5817 93.097 19.5817C93.8449 19.5817 94.4697 19.4161 94.9714 19.0847C95.4731 18.7534 95.8139 18.2895 95.9938 17.6931H92.9834V15.9607Z" fill="#1267B0"/>
<path d="M99.3614 21.2999V11.3599H101.321V21.2999H99.3614Z" fill="#1267B0"/>
<path d="M102.423 11.3599H109.736V13.2343H107.052V21.2999H105.092V13.2343H102.423V11.3599Z" fill="#1267B0"/>
<path d="M118.628 21.2999H116.498L115.902 19.5107H111.94L111.344 21.2999H109.228L112.707 11.3599H115.135L118.628 21.2999ZM113.928 13.6177L112.565 17.6789H115.291L113.928 13.6177Z" fill="#1267B0"/>
<path d="M121.553 11.3599V19.4255H125.345V21.2999H119.594V11.3599H121.553Z" fill="#1267B0"/>
<path d="M74.2896 25.5599H78.2372C79.6004 25.5599 80.7364 26.038 81.6452 26.9941C82.5634 27.9408 83.0225 29.1194 83.0225 30.5299C83.0225 31.9405 82.5634 33.1191 81.6452 34.0657C80.7364 35.0219 79.6004 35.4999 78.2372 35.4999H74.2896V25.5599ZM76.2492 33.6255H78.2372C79.0986 33.6255 79.7992 33.3415 80.3388 32.7735C80.8784 32.1866 81.1482 31.4387 81.1482 30.5299C81.1482 29.6117 80.8784 28.8685 80.3388 28.3005C79.7992 27.7231 79.0986 27.4343 78.2372 27.4343H76.2492V33.6255Z" fill="#1267B0"/>
<path d="M86.3722 31.3961V33.6255H90.5612V35.4999H84.4126V25.5599H90.4902V27.4343H86.3722V29.5501H90.1352V31.3961H86.3722Z" fill="#1267B0"/>
<path d="M97.6935 31.6233V25.5599H99.6531V35.4999H98.1621L93.9021 29.4223V35.4999H91.9425V25.5599H93.4335L97.6935 31.6233Z" fill="#1267B0"/>
<path d="M103.457 31.3961V33.6255H107.646V35.4999H101.497V25.5599H107.575V27.4343H103.457V29.5501H107.22V31.3961H103.457Z" fill="#1267B0"/>
<path d="M116.595 35.4999H114.48L112.477 32.0493H110.986V35.4999H109.027V25.5599H113.003C113.921 25.5599 114.702 25.8818 115.346 26.5255C115.99 27.1693 116.311 27.9455 116.311 28.8543C116.311 29.4697 116.136 30.0424 115.786 30.5725C115.436 31.0932 114.972 31.4861 114.394 31.7511L116.595 35.4999ZM113.003 27.3917H110.986V30.3311H113.003C113.372 30.3311 113.689 30.1891 113.954 29.9051C114.219 29.6117 114.352 29.2614 114.352 28.8543C114.352 28.4473 114.219 28.1017 113.954 27.8177C113.689 27.5337 113.372 27.3917 113.003 27.3917Z" fill="#1267B0"/>
<path d="M126.269 35.4999H124.139L123.543 33.7107H119.581L118.985 35.4999H116.869L120.348 25.5599H122.776L126.269 35.4999ZM121.569 27.8177L120.206 31.8789H122.932L121.569 27.8177Z" fill="#1267B0"/>
<path d="M125.775 25.5599H133.088V27.4343H130.404V35.4999H128.445V27.4343H125.775V25.5599Z" fill="#1267B0"/>
<path d="M134.182 35.4999V25.5599H136.142V35.4999H134.182Z" fill="#1267B0"/>
<path d="M146.345 34.2077C145.342 35.2017 144.121 35.6987 142.682 35.6987C141.243 35.6987 140.022 35.2017 139.018 34.2077C138.024 33.1948 137.527 31.9689 137.527 30.5299C137.527 29.0815 138.024 27.8603 139.018 26.8663C140.022 25.8629 141.243 25.3611 142.682 25.3611C144.121 25.3611 145.342 25.8629 146.345 26.8663C147.349 27.8603 147.851 29.0815 147.851 30.5299C147.851 31.9783 147.349 33.2043 146.345 34.2077ZM140.396 32.8729C141.001 33.4788 141.763 33.7817 142.682 33.7817C143.6 33.7817 144.362 33.4788 144.968 32.8729C145.583 32.2576 145.891 31.4766 145.891 30.5299C145.891 29.5833 145.583 28.8023 144.968 28.1869C144.353 27.5716 143.591 27.2639 142.682 27.2639C141.773 27.2639 141.011 27.5716 140.396 28.1869C139.78 28.8023 139.473 29.5833 139.473 30.5299C139.473 31.4766 139.78 32.2576 140.396 32.8729Z" fill="#1267B0"/>
<path d="M154.979 31.6233V25.5599H156.938V35.4999H155.447L151.187 29.4223V35.4999H149.228V25.5599H150.719L154.979 31.6233Z" fill="#1267B0"/>
<path d="M74.4438 47.2219V40.1148H75.5207V47.2219C75.5207 48.0936 75.7771 48.7807 76.2898 49.2832C76.8129 49.7755 77.5308 50.0216 78.4435 50.0216C79.3563 50.0216 80.069 49.7755 80.5818 49.2832C81.1048 48.7807 81.3663 48.0936 81.3663 47.2219V40.1148H82.4432V47.2219C82.4432 48.391 82.074 49.3243 81.3356 50.0216C80.5869 50.719 79.6229 51.0677 78.4435 51.0677C77.2641 51.0677 76.3001 50.719 75.5514 50.0216C74.813 49.3243 74.4438 48.391 74.4438 47.2219Z" fill="#1267B0"/>
<path d="M90.9064 41.1301L85.3377 49.8678H91.0603V50.8831H84.1378V49.8678L89.7065 41.1301H84.2916V40.1148H90.9064V41.1301Z" fill="#1267B0"/>
<path d="M98.7139 45.299C99.2472 45.5246 99.6677 45.8681 99.9754 46.3296C100.283 46.7911 100.437 47.309 100.437 47.8834C100.437 48.7141 100.145 49.4217 99.56 50.0063C98.9755 50.5908 98.2678 50.8831 97.4371 50.8831H92.7452V40.1148H97.0833C97.873 40.1148 98.555 40.4019 99.1293 40.9762C99.6933 41.5403 99.9754 42.2172 99.9754 43.0068C99.9754 44.0119 99.5549 44.7759 98.7139 45.299ZM97.0833 41.1301H93.822V44.8836H97.0833C97.5756 44.8836 98.0012 44.7041 98.3601 44.3452C98.7191 43.9657 98.8985 43.5196 98.8985 43.0068C98.8985 42.5043 98.7191 42.0633 98.3601 41.6839C98.0012 41.3147 97.5756 41.1301 97.0833 41.1301ZM93.822 49.8678H97.4371C97.9704 49.8678 98.4217 49.6781 98.7909 49.2986C99.1703 48.9192 99.36 48.4474 99.36 47.8834C99.36 47.3296 99.1703 46.8629 98.7909 46.4835C98.4217 46.0938 97.9704 45.8989 97.4371 45.8989H93.822V49.8678Z" fill="#1267B0"/>
<path d="M103.362 45.9604V49.8678H108.592V50.8831H102.285V40.1148H108.515V41.1301H103.362V44.9451H108.13V45.9604H103.362Z" fill="#1267B0"/>
<path d="M112.657 45.3451L117.98 50.8831H116.565L111.519 45.6682V50.8831H110.442V40.1148H111.519V45.0374L116.411 40.1148H117.826L112.657 45.3451Z" fill="#1267B0"/>
<path d="M119.366 50.8831V40.1148H120.442V50.8831H119.366Z" fill="#1267B0"/>
<path d="M126.145 51.0677C125.161 51.0677 124.314 50.837 123.607 50.3755C122.909 49.9037 122.422 49.2576 122.145 48.4372L123.068 47.8987C123.263 48.5756 123.622 49.0986 124.145 49.4678C124.679 49.837 125.35 50.0216 126.16 50.0216C126.95 50.0216 127.571 49.8473 128.022 49.4986C128.473 49.1499 128.699 48.6782 128.699 48.0833C128.699 47.5193 128.494 47.0937 128.083 46.8065C127.683 46.5194 127.007 46.222 126.053 45.9143C124.914 45.5348 124.176 45.2374 123.838 45.0221C123.017 44.5298 122.607 43.817 122.607 42.8838C122.607 41.971 122.925 41.2531 123.561 40.7301C124.186 40.1968 124.971 39.9302 125.914 39.9302C126.725 39.9302 127.442 40.1455 128.068 40.5763C128.694 40.9968 129.16 41.5557 129.468 42.2531L128.56 42.7607C128.068 41.5711 127.186 40.9762 125.914 40.9762C125.237 40.9762 124.694 41.1455 124.284 41.4839C123.884 41.8121 123.684 42.2633 123.684 42.8376C123.684 43.3812 123.868 43.7811 124.238 44.0375C124.617 44.3042 125.227 44.5759 126.068 44.8528L126.899 45.1451C127.073 45.1964 127.319 45.2887 127.637 45.422C127.986 45.5553 128.227 45.6682 128.36 45.7605C128.904 46.0886 129.247 46.3912 129.391 46.6681C129.647 47.0783 129.776 47.5398 129.776 48.0526C129.776 48.9653 129.442 49.6986 128.776 50.2524C128.109 50.7959 127.232 51.0677 126.145 51.0677Z" fill="#1267B0"/>
<path d="M130.311 40.1148H138.002V41.1301H134.695V50.8831H133.618V41.1301H130.311V40.1148Z" fill="#1267B0"/>
<path d="M147.082 50.8831H145.944L144.944 48.2372H139.836L138.837 50.8831H137.698L141.836 40.1148H142.944L147.082 50.8831ZM142.39 41.4531L140.221 47.2219H144.559L142.39 41.4531Z" fill="#1267B0"/>
<path d="M155.387 48.8833V40.1148H156.464V50.8831H155.541L149.542 42.1146V50.8831H148.465V40.1148H149.388L155.387 48.8833Z" fill="#1267B0"/>
<path fill-rule="evenodd" clip-rule="evenodd" d="M57.926 19.0978L34.331 5.73565C33.2238 5.10861 31.8596 5.10861 30.7523 5.73565L7.15731 19.0978C6.05007 19.7249 5.36798 20.8837 5.36798 22.1378V48.8622C5.36798 50.1163 6.05007 51.2751 7.15731 51.9021L30.7523 65.2643C31.8596 65.8914 33.2238 65.8914 34.331 65.2643L57.926 51.9021C59.0333 51.2751 59.7154 50.1163 59.7154 48.8622V22.1378C59.7154 20.8837 59.0333 19.7249 57.926 19.0978ZM37.015 1.17571C34.2469 -0.391903 30.8365 -0.391904 28.0684 1.17571L4.47332 14.5379C1.70522 16.1055 0 19.0026 0 22.1378V48.8622C0 51.9974 1.70522 54.8945 4.47332 56.4621L28.0684 69.8243C30.8365 71.3919 34.2469 71.3919 37.015 69.8243L60.61 56.4621C63.3781 54.8945 65.0833 51.9974 65.0833 48.8622V22.1378C65.0833 19.0026 63.3781 16.1055 60.61 14.5379L37.015 1.17571Z" fill="#1267B0"/>
<path d="M30.7666 13.6083C30.7666 12.6279 31.5613 11.8333 32.5416 11.8333C33.5219 11.8333 34.3166 12.6279 34.3166 13.6083V57.3916C34.3166 58.3719 33.5219 59.1666 32.5416 59.1666C31.5613 59.1666 30.7666 58.3719 30.7666 57.3916V13.6083Z" fill="#FFD300"/>
<path d="M40.2334 18.3417C40.2334 17.3613 41.0281 16.5667 42.0084 16.5667C42.9887 16.5667 43.7834 17.3613 43.7834 18.3417V39.6417C43.7834 40.622 42.9887 41.4167 42.0084 41.4167C41.0281 41.4167 40.2334 40.622 40.2334 39.6417V18.3417Z" fill="#00B55F"/>
<path d="M49.7002 34.9083C49.7002 33.928 50.4949 33.1333 51.4752 33.1333C52.4555 33.1333 53.2502 33.928 53.2502 34.9083V49.1083C53.2502 50.0886 52.4555 50.8833 51.4752 50.8833C50.4949 50.8833 49.7002 50.0886 49.7002 49.1083V34.9083Z" fill="#A83492"/>
<path d="M49.7002 23.075C49.7002 22.0947 50.4949 21.3 51.4752 21.3C52.4555 21.3 53.2502 22.0947 53.2502 23.075V27.8084C53.2502 28.7887 52.4555 29.5834 51.4752 29.5834C50.4949 29.5834 49.7002 28.7887 49.7002 27.8084V23.075Z" fill="#A83492"/>
<path d="M20.1167 18.3417C20.1167 17.3613 20.9114 16.5667 21.8917 16.5667C22.872 16.5667 23.6667 17.3613 23.6667 18.3417V21.8917C23.6667 22.872 22.872 23.6666 21.8917 23.6666C20.9114 23.6666 20.1167 22.872 20.1167 21.8917V18.3417Z" fill="#FF8803"/>
<path d="M11.8335 45.5584C11.8335 44.5781 12.6282 43.7834 13.6085 43.7834C14.5888 43.7834 15.3835 44.5781 15.3835 45.5584V49.1084C15.3835 50.0888 14.5888 50.8834 13.6085 50.8834C12.6282 50.8834 11.8335 50.0888 11.8335 49.1084V45.5584Z" fill="#FF1E36"/>
<path d="M11.8335 23.075C11.8335 22.0947 12.6282 21.3 13.6085 21.3C14.5888 21.3 15.3835 22.0947 15.3835 23.075V38.4584C15.3835 39.4387 14.5888 40.2334 13.6085 40.2334C12.6282 40.2334 11.8335 39.4387 11.8335 38.4584V23.075Z" fill="#FF1E36"/>
<path d="M20.1167 28.9916C20.1167 28.0112 20.9114 27.2166 21.8917 27.2166C22.872 27.2166 23.6667 28.0112 23.6667 28.9916V51.4749C23.6667 52.4552 22.872 53.2499 21.8917 53.2499C20.9114 53.2499 20.1167 52.4552 20.1167 51.4749V28.9916Z" fill="#FF8803"/>
<path d="M40.2334 47.9249C40.2334 46.9446 41.0281 46.1499 42.0084 46.1499C42.9887 46.1499 43.7834 46.9446 43.7834 47.9249V51.4749C43.7834 52.4552 42.9887 53.2499 42.0084 53.2499C41.0281 53.2499 40.2334 52.4552 40.2334 51.4749V47.9249Z" fill="#00B55F"/>
</svg>
